<?xml version="1.0" encoding="UTF-8"?><svg id="Layer_1" xmlns="http://www.w3.org/2000/svg" xmlns:xlink="http://www.w3.org/1999/xlink" viewBox="0 0 1080 1080"><defs><style>.cls-1{fill:url(#linear-gradient-2);}.cls-2{fill:url(#linear-gradient-6);}.cls-3{fill:url(#linear-gradient-11);}.cls-4{fill:url(#linear-gradient-10);}.cls-5{fill:url(#linear-gradient-5);}.cls-6{fill:url(#linear-gradient-7);}.cls-7{fill:url(#linear-gradient-9);}.cls-8{fill:url(#linear-gradient-3);}.cls-9{fill:url(#linear-gradient);}.cls-10{fill:url(#linear-gradient-4);}.cls-11{fill:url(#linear-gradient-8);}</style><linearGradient id="linear-gradient" x1="58.79" y1="632.49" x2="997.47" y2="632.49" gradientUnits="userSpaceOnUse"><stop offset="0" stop-color="#2154c4"/><stop offset=".49" stop-color="#16a8d1"/><stop offset="1" stop-color="#22e2a7"/></linearGradient><linearGradient id="linear-gradient-2" x1="58.68" y1="630.98" x2="997.59" y2="630.98" xlink:href="#linear-gradient"/><linearGradient id="linear-gradient-3" x1="58.8" y1="666.6" x2="997.53" y2="666.6" xlink:href="#linear-gradient"/><linearGradient id="linear-gradient-4" x1="58.55" y1="630.98" x2="997.7" y2="630.98" xlink:href="#linear-gradient"/><linearGradient id="linear-gradient-5" x1="58.77" y1="630.99" x2="997.39" y2="630.99" xlink:href="#linear-gradient"/><linearGradient id="linear-gradient-6" x1="58.83" y1="630.99" x2="997.54" y2="630.99" xlink:href="#linear-gradient"/><linearGradient id="linear-gradient-7" x1="58.65" y1="630.99" x2="997.62" y2="630.99" xlink:href="#linear-gradient"/><linearGradient id="linear-gradient-8" x1="58.59" y1="630.99" x2="997.64" y2="630.99" xlink:href="#linear-gradient"/><linearGradient id="linear-gradient-9" x1="58.6" y1="638.81" x2="997.84" y2="638.81" xlink:href="#linear-gradient"/><linearGradient id="linear-gradient-10" x1="58.43" y1="638.81" x2="997.67" y2="638.81" xlink:href="#linear-gradient"/><linearGradient id="linear-gradient-11" x1="69.46" y1="437.59" x2="987.34" y2="437.59" xlink:href="#linear-gradient"/></defs><rect class="cls-9" x="491.93" y="293.44" width="31.17" height="678.09" rx="15.57" ry="15.57"/><rect class="cls-1" x="426.95" y="408.81" width="31.17" height="444.32" rx="15.57" ry="15.57"/><rect class="cls-8" x="621.91" y="480.07" width="31.17" height="373.07" rx="15.57" ry="15.57"/><rect class="cls-10" x="556.92" y="521.22" width="31.17" height="219.52" rx="15.57" ry="15.57"/><rect class="cls-5" x="361.96" y="543.72" width="31.15" height="174.55" rx="15.57" ry="15.57"/><rect class="cls-2" x="686.89" y="543.72" width="31.17" height="174.55" rx="15.57" ry="15.57"/><rect class="cls-6" x="296.96" y="579.42" width="31.17" height="103.14" rx="15.57" ry="15.57"/><rect class="cls-11" x="751.88" y="579.42" width="31.19" height="103.14" rx="15.57" ry="15.57"/><rect class="cls-7" x="231.97" y="620.41" width="31.18" height="36.81" rx="15.57" ry="15.57"/><rect class="cls-4" x="816.87" y="620.41" width="31.18" height="36.81" rx="15.57" ry="15.57"/><path class="cls-3" d="m965.47,431.67h-.9c4.99,23.32,6.77,43.45,6.77,43.45h-15.24c-20.42-205.1-194.71-366.65-404.94-366.65h-22.29c-205.94,0-377.29,155.05-403.42,354.15-.16,1.3-.32,2.66-.49,3.97-.34,2.72-.74,5.44-1.01,8.18,0,.12-.04.22-.05.34h-19.39s1.78-20.04,6.74-43.29c-37.34,1.75-56.24,32.75-56.24,70.52v204.83c0,38.87,20.67,59.53,59.53,59.53h1.83c38.87,0,70.68-20.66,70.68-59.53v-183.8c0-194.36,158.84-353.39,352.96-353.39s352.96,159.03,352.96,353.39v183.8c0,38.87,31.81,59.53,70.69,59.53h1.83c38.87,0,59.53-20.66,59.53-59.53v-204.83c0-38.87-20.66-70.68-59.53-70.68Z"/></svg>